<?xml version="1.0" encoding="utf-8"?>
<!-- Generator: Adobe Illustrator 21.0.2, SVG Export Plug-In . SVG Version: 6.00 Build 0)  -->
<svg version="1.1" id="レイヤー_1" xmlns="http://www.w3.org/2000/svg" xmlns:xlink="http://www.w3.org/1999/xlink" x="0px"
	 y="0px" viewBox="0 0 200 200" style="enable-background:new 0 0 200 200;" xml:space="preserve" width="200" height="200">
<style type="text/css">
	.st0{fill:#0077DB;}
	.st1{fill:#F4C51F;}
</style>
<g id="GfFXDJ.tif">
	<g>
		<path class="st0" d="M85.1,173c-4.6-1.9-9.5-3.3-13.6-6c-9.4-6.2-13.7-18.5-11-29.7c2.7-11.4,11.8-19.9,23.1-21.5
			c2.5-0.4,5-0.5,7.5-0.3c1.9,0.2,2.4-0.2,3-2c3.5-11.2,11-18.4,22.5-20.9c15-3.3,29.4,5.2,34.3,20c0.6,1.9,1.4,2.9,3.5,3.1
			c13.3,1.7,22.7,10.8,25,24.1c0.1,0.6,0.4,1.2,0.6,1.7c0,1.9,0,3.8,0,5.7c-0.2,0.6-0.6,1.1-0.7,1.7c-1.4,8.3-5.6,14.9-12.8,19.1
			c-3.8,2.2-8.2,3.3-12.3,5C131.2,173,108.2,173,85.1,173z"/>
		<path class="st1" d="M90.1,27c0,6.5,0,12.9,0,19.6c-3.4,0-6.4,0-10.1,0c0-6.6,0-13.1,0-19.6C83.4,27,86.8,27,90.1,27z"/>
		<path class="st1" d="M19,88c6.5,0,12.9,0,19.6,0c0,3.4,0,6.4,0,10.1c-6.6,0-13.1,0-19.6,0C19,94.8,19,91.4,19,88z"/>
		<path class="st1" d="M59.3,116.9c-9.4-9-12.2-25.1-6.8-37.8C58,66,71.4,57.5,85.9,57.8c14.7,0.4,27.3,9.3,32.2,23.1
			c-2.7,0.7-5.4,1.3-8,2.3c-10.9,3.8-18.5,11.1-23.3,21.5c-0.4,0.9-1.6,2.1-2.5,2.1C74.8,107.4,66.5,110.4,59.3,116.9z"/>
		<path class="st1" d="M42,43.5c4.4,4.5,8.9,9,13.5,13.7c-2.1,1.9-4.4,4-6.4,5.8c-4.3-4.2-8.9-8.7-13.5-13.3
			C37.5,47.8,39.8,45.6,42,43.5z"/>
		<path class="st1" d="M128.7,43.5c1.8,2,3.9,4.3,5.8,6.5c-4.3,4.3-8.9,8.8-13.5,13.4c-2-1.9-4.3-4.1-6.4-6.1
			C119.4,52.6,123.9,48.2,128.7,43.5z"/>
		<path class="st1" d="M49.1,122.7c2.5,1.4,3.3,3.3,1.3,6.1c-0.9,1.3-1.6,3-1.9,4.6c-0.6,4.3-3.5,6.9-6.6,9.6
			c-2.3-2.3-4.5-4.6-6.5-6.6C40,131.9,44.5,127.3,49.1,122.7z"/>
	</g>
</g>
</svg>
